<svg xmlns="http://www.w3.org/2000/svg" width="176.224" height="49.002" viewBox="0 0 46.626 12.965"><defs><linearGradient id="a" x1="11.932" x2="11.932" y1="3.851" y2="10.773" gradientTransform="matrix(.96015 0 0 .84743 14.918 -3.158)" gradientUnits="userSpaceOnUse"><stop offset="0" style="stop-color:#bada55"/><stop offset="1" style="stop-color:#758d29"/></linearGradient><linearGradient id="b" x1="16.415" x2="16.415" y1="11.445" y2="17.531" gradientTransform="matrix(.96015 0 0 .84743 14.918 -3.158)" gradientUnits="userSpaceOnUse"><stop offset="0" style="stop-color:#bada55"/><stop offset="1" style="stop-color:#758d29"/></linearGradient></defs><path d="M20.559 3.456a1.7 1.7 0 0 1-.203.459 1.9 1.9 0 0 1-.651.624 2.5 2.5 0 0 1-.384.178 2.3 2.3 0 0 1-.725.136h-3.762l.243-.861h3.762a.8.8 0 0 0 .478-.145.7.7 0 0 0 .266-.391.5.5 0 0 0 .02-.218.34.34 0 0 0-.225-.285.6.6 0 0 0-.234-.04h-2.243q-.235 0-.489-.074a1.15 1.15 0 0 1-.44-.24.9.9 0 0 1-.268-.434q-.08-.268.03-.655t.34-.654A2.1 2.1 0 0 1 17.162.18q.295-.074.532-.074h3.32l-.244.861h-3.32a.76.76 0 0 0-.475.149.73.73 0 0 0-.267.394q-.069.248.045.392.116.144.393.144h2.251a1.7 1.7 0 0 1 .643.145q.154.073.279.184a.9.9 0 0 1 .205.267.9.9 0 0 1 .092.358 1.3 1.3 0 0 1-.057.456Zm7.993-2.182a20 20 0 0 1-.759.906q-.396.446-.802.843-.408.397-.81.733a8 8 0 0 1-.773.579 4.5 4.5 0 0 1-.696.381q-.325.137-.581.137a.5.5 0 0 1-.185-.033.35.35 0 0 1-.133-.091.3.3 0 0 1-.066-.138.4.4 0 0 1 .012-.172l.453-1.605-2.474 1.91a.7.7 0 0 1-.192.098.6.6 0 0 1-.191.031.5.5 0 0 1-.179-.033.35.35 0 0 1-.131-.091.3.3 0 0 1-.067-.138.35.35 0 0 1 .009-.172l.888-3.145h.975l-.576 2.04 2.484-1.917a.7.7 0 0 1 .283-.118.5.5 0 0 1 .275.028.32.32 0 0 1 .176.158.33.33 0 0 1 .013.236l-.578 2.046q.391-.267.73-.566.34-.297.648-.614.309-.315.594-.642.285-.325.561-.651zm3.681 2.394a1.66 1.66 0 0 1-.518.77 1.9 1.9 0 0 1-.501.296 1.7 1.7 0 0 1-.658.119h-1.759q-.203 0-.419-.063a1 1 0 0 1-.377-.203.8.8 0 0 1-.233-.368q-.07-.227.021-.551.05-.178.181-.387.129-.21.339-.386t.5-.296.659-.12h1.759l-.233.821h-1.759a.54.54 0 0 0-.338.108.5.5 0 0 0-.184.266q-.047.17.052.264a.38.38 0 0 0 .272.094h1.751a.54.54 0 0 0 .337-.106.5.5 0 0 0 .184-.264l.339-1.202q.048-.169-.042-.269-.09-.099-.27-.099h-2.142l.232-.818h2.141q.203 0 .419.064.216.063.378.203a.8.8 0 0 1 .231.367q.071.227-.02.552zm5.31-.023a1.5 1.5 0 0 1-.177.399 1.7 1.7 0 0 1-.256.311 1.7 1.7 0 0 1-.309.229 2.1 2.1 0 0 1-.664.241 2 2 0 0 1-.301.028h-1.759l.243-.861h1.759q.195 0 .318-.089a.46.46 0 0 0 .17-.258l.328-1.159q.05-.179-.024-.264-.075-.087-.267-.087h-1.752a.55.55 0 0 0-.324.088.45.45 0 0 0-.174.256l-.987 3.493h-.975l.986-3.493q.063-.221.177-.397a1.6 1.6 0 0 1 .568-.537 2 2 0 0 1 .966-.271h1.759q.25 0 .434.057.182.056.308.149t.198.215a.9.9 0 0 1 .102.256 1.1 1.1 0 0 1-.018.528z" style="fill:#ffd600;stroke:url(#a);stroke-width:0"/><path d="M21.255 11.632h-.983l.799-2.827-2.488 2.685a.6.6 0 0 1-.221.156.7.7 0 0 1-.261.053.45.45 0 0 1-.223-.053.28.28 0 0 1-.131-.156l-.978-2.685-.799 2.827h-.975l1.237-4.379a.53.53 0 0 1 .175-.264.7.7 0 0 1 .304-.156.56.56 0 0 1 .305.017q.066.025.113.07.048.045.071.107l1.258 3.407 3.183-3.407a.7.7 0 0 1 .289-.178.6.6 0 0 1 .321-.016.33.33 0 0 1 .214.156.32.32 0 0 1 .027.264zm5.524-1.184a1.5 1.5 0 0 1-.179.385q-.13.207-.34.384t-.499.296q-.291.12-.659.119h-1.759q-.203 0-.419-.062a1 1 0 0 1-.378-.204.8.8 0 0 1-.231-.367q-.072-.228.02-.551.05-.179.181-.388.13-.209.339-.386t.5-.296.659-.119h1.759l-.232.821h-1.759a.534.534 0 0 0-.523.374q-.047.17.052.263a.38.38 0 0 0 .272.094h1.751a.53.53 0 0 0 .337-.106.5.5 0 0 0 .184-.264l.34-1.202q.048-.168-.043-.268-.09-.099-.269-.099H23.74l.232-.818h2.141q.202 0 .42.063.216.063.377.204a.77.77 0 0 1 .231.367q.072.227-.02.551zm4.815-1.533H29.4a.56.56 0 0 0-.326.087.45.45 0 0 0-.174.257l-.67 2.373h-.974l.67-2.373a1.45 1.45 0 0 1 .434-.707q.144-.133.31-.228a2 2 0 0 1 .666-.241q.164-.03.299-.029h2.201zm4.636 2.717h-1.406l-1.493-1.675q-.128-.132-.059-.33a.6.6 0 0 1 .271-.311l2.14-1.268h1.56l-2.757 1.631zm-3.773 0h-.975l1.438-5.091h.975zm9.228-2.393a1.64 1.64 0 0 1-.52.77q-.21.177-.5.296a1.7 1.7 0 0 1-.659.119h-1.759l.232-.818h1.759a.54.54 0 0 0 .338-.107.5.5 0 0 0 .184-.266q.048-.169-.047-.266-.095-.095-.268-.095h-1.759a.54.54 0 0 0-.338.107.5.5 0 0 0-.184.267l-.339 1.202q-.049.172.046.268.095.095.275.095h1.751l-.231.821h-1.759q-.203 0-.42-.062a1 1 0 0 1-.377-.204.8.8 0 0 1-.232-.367q-.07-.228.02-.551l.342-1.209q.05-.178.18-.385.129-.207.339-.384t.5-.297q.29-.119.659-.119h1.759q.202 0 .418.063.217.063.379.204a.8.8 0 0 1 .231.367q.071.227-.02.551Zm4.434-.324h-1.703l-.768 2.717h-.986l.768-2.717h-1.268l.244-.861h1.267l.331-1.169h.986l-.331 1.169h1.704z" style="fill:#ffd600;stroke:url(#b);stroke-width:0"/><g fill-rule="evenodd" clip-rule="evenodd"><path d="M347.15 219.95q-.75.75-1.65 1.5-4.7 4.15-10.75 4l-13-.101 13 .101q6.05.15 10.75-4 .9-.75 1.65-1.5l-22.2 35.2q-.85 1.3-2.5 2.6-3.35 2.6-7.3 2.55l-18.7-.25-.25 14.5-18.35-31.9 18.45-34.15-.399 16.65 25.85.199-20.2-35.149 32.4-18.7 16.45 28.75a17.7 17.7 0 0 1 1.35 4.2q1.35 7-2.7 12.85-.65 1.2-1.75 2.45a.8.8 0 0 0-.151.2M242.9 129.8q5.3-4.75 12.4-4.3l2.9.5 41.95.45 3.55.8q3.95 1.5 5.899 4.9l9.5 16.15 12.551-7.3-17.801 32.2-38.8 1.9 14.5-8.25-13.1-22.25-19.75 35.55-32.8-18.05 16.1-29q1.251-1.8 2.901-3.3m-14.85 94.25h40.45l.05 37.45h-31.4q-2.75.15-6.1-1.05-6.65-2.3-9.7-8.7-.7-1.2-1.2-2.75a22 22 0 0 1-.6-2.35q-1.2-6.1 1.9-11.25zl-6.6 11.351q-3.1 5.15-1.9 11.25.25 1.25.6 2.35l-19.7-37.05q-.7-1.401-1-3.45-.6-4.15 1.45-7.55l9.55-16.1-12.5-7.45h36.85l20.4 33-14.25-8.65zM258.2 126l2.4.4q5.85 1.95 8.85 7.2l7 11-7-11q-3-5.25-8.85-7.2z" style="fill:#f90" transform="translate(-16.157 -10.557)scale(.0842)"/><path stroke="#000" stroke-miterlimit="6" stroke-width="3.25" d="m321.75 225.35-20.2-35.149 32.4-18.7 16.45 28.75a17.7 17.7 0 0 1 1.35 4.2q1.35 7-2.7 12.85-.65 1.2-1.75 2.45a.8.8 0 0 0-.149.2l-22.2 35.2q-.85 1.3-2.5 2.6-3.35 2.6-7.3 2.55l-18.7-.25-.25 14.5-18.351-31.901 18.45-34.15-.399 16.65zm25.4-5.4q-.75.75-1.65 1.5-4.7 4.15-10.75 4l-13-.101M242.9 129.8q5.3-4.75 12.4-4.3l2.9.5 41.95.45 3.55.8q3.95 1.5 5.899 4.9l9.5 16.15 12.551-7.3-17.801 32.2-38.8 1.9 14.5-8.25-13.1-22.25-19.75 35.55-32.8-18.05 16.1-29q1.251-1.8 2.901-3.3zm-14.85 94.25 12.9-22.3 14.25 8.65-20.4-33h-36.85l12.5 7.45-9.55 16.1q-2.05 3.4-1.45 7.55.3 2.05 1 3.45l19.7 37.05a22 22 0 0 1-.6-2.35q-1.2-6.1 1.9-11.25l6.6-11.35h40.45l.05 37.45h-31.4q-2.75.15-6.1-1.05-6.65-2.3-9.7-8.7-.7-1.2-1.2-2.75m38.05-123 2.4.4q5.85 1.95 8.85 7.2l7 11" style="fill:#f90" transform="translate(-16.157 -10.557)scale(.0842)"/></g></svg>