<svg width="512" height="512" xmlns="http://www.w3.org/2000/svg" xml:space="preserve">

 <g>
  <title>Layer 1</title>
  <path id="svg_1" fill="#4c4c4c" clip-rule="evenodd" fill-rule="evenodd" d="m129.9,298.7l84.1,84.1l42.8,-42.9l85.7,-85.7l-84.1,-84.1l-42,-42l-85.7,85.7l85.7,-85.7l-84,-84.1l42.8,-42.9l84,84.1l85.7,-85.7l42,42l-85.7,85.7l84,84.1l85.7,-85.7l42,42l-85.7,85.7l84.1,84.1l-42.8,42.9l-84.1,-84.1l-85.6,85.8l84.1,84.1l-42.9,42.8l-84,-84.1l-85.7,85.7l-42,-42l85.7,-85.7l-84.1,-84.1z"/>
  <path id="svg_2" fill="#000000" clip-rule="evenodd" fill-rule="evenodd" d="m44.5,129.4l84,84.1l85.7,-85.7l42,42l-85.7,85.7l84.1,84.1l-42.8,42.9l-84.1,-84.1l-85.7,85.8l-42,-42l85.7,-85.7l-84,-84.1l42.8,-43z"/>
 </g>
</svg>