<svg xmlns="http://www.w3.org/2000/svg" xml:space="preserve" width="512" height="512"><title>Layer 1</title><path fill="#4c4c4c" fill-rule="evenodd" d="m129.9 298.7 84.1 84.1 42.8-42.9 85.7-85.7-84.1-84.1-42-42-85.7 85.7 85.7-85.7-84-84.1 42.8-42.9 84 84.1L344.9-.5l42 42-85.7 85.7 84 84.1 85.7-85.7 42 42-85.7 85.7 84.1 84.1-42.8 42.9-84.1-84.1-85.6 85.8 84.1 84.1-42.9 42.8-84-84.1-85.7 85.7-42-42 85.7-85.7z" clip-rule="evenodd"/><path fill-rule="evenodd" d="m44.5 129.4 84 84.1 85.7-85.7 42 42-85.7 85.7 84.1 84.1-42.8 42.9-84.1-84.1L42 384.2l-42-42 85.7-85.7-84-84.1z" clip-rule="evenodd"/></svg>